<?xml version="1.0" encoding="UTF-8"?>
<svg id="Layer_1" data-name="Layer 1" xmlns="http://www.w3.org/2000/svg" viewBox="0 0 100 100">
  <defs>
    <style>
      .cls-1 {
        fill: #231f20;
      }

      .cls-2 {
        fill: #010101;
      }

      .cls-3 {
        fill: #ea5a24;
      }
    </style>
  </defs>
  <path class="cls-3" d="M71.65,28.59H29.45l7.88,6.61h-12.78l9.45,35.27h33.1l6.02-22.48h-37.39l-1.42-5.29h40.23l2.01-7.49h-12.78l7.88-6.61ZM54.29,55.48h9.06l-2.01,7.49h-7.05v-7.49ZM46.8,55.48v7.49h-7.05l-2.01-7.49h9.06Z"/>
  <g>
    <g>
      <path class="cls-2" d="M86.66,64.32l3.24-.51.55-1.45-2.67-1.01.33-.87,6.4,2.42-1.14,3.01c-.09.24-.28.49-.49.63-.16.11-.62.31-.78.35-.23.05-.46.03-.68-.05l-.96-.36c-.21-.08-.39-.22-.53-.41-.1-.13-.3-.59-.35-.78-.05-.16-.07-.43,0-.57l-3.28.56.36-.95ZM91.73,65.95s.11.04.12.03c.14-.02.6-.2.67-.34,0-.02.02-.04.02-.06l.8-2.12-2.07-.79-.8,2.12c-.07.19.11.62.22.76,0,.02.09.05.11.05l.92.35Z"/>
      <path class="cls-2" d="M85.19,67.66l5.82,3.6-2.21,3.57-.76-.47,1.71-2.77-1.77-1.09-1.62,2.62-.76-.47,1.62-2.62-1.77-1.1-1.71,2.77-.76-.47,2.21-3.57Z"/>
      <path class="cls-2" d="M78.42,76.83l1.47.66,2-2.19-.77-1.42.67-.73,3.43,6.38-.83.91-6.65-2.87.68-.74ZM84.1,79.33l-1.76-3.22-1.6,1.75,3.36,1.48Z"/>
      <path class="cls-2" d="M76.01,79.17l4.12,5.46-.75.56-3.58-4.75-2.55,1.92-.54-.71,3.29-2.48Z"/>
      <path class="cls-2" d="M70.46,83.08l3.34,5.97-.82.46-3.34-5.97.82-.46Z"/>
      <path class="cls-2" d="M66.8,91.45l-2.14-5.56.87-.34,2.14,5.56,1.82-.7.32.83-4.51,1.74-.32-.83,1.82-.7Z"/>
      <path class="cls-2" d="M59.04,90.74l-.61-3.02.92-.19.61,3.02,2.85,3.26-1.01.2-2.12-2.44s-1,3.08-1,3.08l-.99.2,1.36-4.11Z"/>
      <path class="cls-2" d="M46.62,88.37l.41,1.56,2.96.19.62-1.49.99.06-2.82,6.67-1.23-.08-1.94-6.98,1,.06ZM48.23,94.37l1.41-3.39-2.37-.15.96,3.55Z"/>
      <path class="cls-2" d="M40.02,93.25l1.4-5.79.91.22-1.4,5.79,1.89.46-.21.86-4.7-1.13.21-.87,1.9.46Z"/>
      <path class="cls-2" d="M29.52,83.58c.22-.11.85-.29,1.11-.3.21,0,.47.04.66.15l1.66.92c.53.29.71.97.79,1.49.02.15,0,.34-.02.67l-.9-.23c.01-.19,0-.24,0-.24,0-.3-.15-.71-.26-.87,0,0-.03-.03-.07-.05l-1.59-.88s-.05-.03-.07-.02c-.2,0-.85.12-.94.29l-.34.61c-.09.16-.06.37.04.47l2.36,2.24c.39.37.39.97.15,1.41l-.33.59c-.09.17-.23.35-.43.45-.22.11-.85.3-1.12.31-.21,0-.47-.04-.66-.15l-1.51-.83c-.52-.29-.71-.96-.78-1.49-.03-.14-.02-.34,0-.66l.92.21c0,.2-.01.25-.01.25-.01.28.15.71.26.87,0,0,.02.03.06.05l1.43.79s.07.02.08.03c.19.01.86-.14.94-.29l.3-.55c.08-.15.06-.34-.04-.44l-2.34-2.26c-.38-.37-.42-.96-.18-1.4l.38-.68c.09-.17.23-.35.43-.45Z"/>
      <path class="cls-2" d="M23.57,78.97c.52-.1,1.21-.18,1.67.2l1.15.97c.17.14.31.38.38.57.09.25.14.89.11,1.14-.02.22-.13.42-.26.57l-2.42,2.88c-.13.16-.3.29-.51.34-.23.06-.89.13-1.15.09-.21-.04-.46-.13-.62-.27l-1.16-.98c-.45-.38-.51-1.08-.48-1.61,0-.15.04-.33.13-.65l.87.39c-.14.36-.08.85.02,1.15,0,0,.03.04.06.07l1.09.92s.06.04.07.04c.17.04.67.02.92-.06.04-.01.19-.21.23-.25l2.23-2.65c.12-.15.02-.79-.06-.97,0,0-.02-.03-.05-.06l-1.09-.92s-.08-.05-.08-.05c-.28-.06-.8-.02-1.12.17l-.54-.77c.19-.11.43-.21.62-.25Z"/>
      <path class="cls-2" d="M19.28,72.95l-.87,1.36,1.86,2.31,1.52-.55.62.77-6.82,2.44-.77-.96,3.83-6.15.63.78ZM15.95,78.2l3.45-1.26-1.49-1.85-1.96,3.1Z"/>
      <path class="cls-2" d="M17.33,70.22l-6.02,3.25-.44-.82,5.24-2.82-1.52-2.81.78-.42,1.96,3.63Z"/>
      <path class="cls-2" d="M14.26,64.26l-6.5,2.14-1.31-3.99.85-.28,1.02,3.1,1.98-.65-.96-2.92.84-.28.96,2.93,1.98-.65-1.02-3.1.85-.28,1.31,3.99Z"/>
    </g>
    <g>
      <path class="cls-2" d="M14.44,34.73l-3.24.51-.55,1.45,2.67,1.01-.33.87-6.4-2.42,1.14-3.01c.09-.24.28-.49.5-.63.16-.11.62-.31.78-.35.22-.05.46-.03.67.05l.96.36c.21.08.39.22.53.41.1.13.3.59.35.78.05.16.07.43,0,.57l3.28-.56-.36.95ZM9.36,33.1s-.11-.04-.12-.03c-.14.02-.6.2-.67.34,0,.02-.02.04-.02.06l-.8,2.12,2.07.79.8-2.12c.07-.19-.11-.62-.22-.76,0-.02-.09-.05-.11-.05l-.92-.35Z"/>
      <path class="cls-2" d="M15.91,31.39l-5.82-3.6,2.21-3.57.76.47-1.71,2.77,1.77,1.1,1.62-2.62.76.47-1.62,2.62,1.77,1.1,1.71-2.77.76.47-2.21,3.57Z"/>
      <path class="cls-2" d="M22.68,22.23l-1.47-.66-2,2.19.77,1.42-.67.73-3.43-6.38.83-.91,6.65,2.87-.68.74ZM16.99,19.72l1.76,3.22,1.6-1.75-3.36-1.48Z"/>
      <path class="cls-2" d="M25.09,19.89l-4.12-5.46.75-.56,3.58,4.75,2.55-1.92.54.71-3.29,2.48Z"/>
      <path class="cls-2" d="M30.63,15.98l-3.34-5.97.82-.46,3.34,5.97-.82.46Z"/>
      <path class="cls-2" d="M34.3,7.6l2.14,5.56-.87.34-2.14-5.56-1.82.7-.32-.83,4.51-1.74.32.83-1.82.7Z"/>
      <path class="cls-2" d="M42.06,8.31l.61,3.02-.92.19-.61-3.02-2.85-3.26,1.01-.2,2.12,2.44s1-3.08,1-3.08l.99-.2-1.36,4.12Z"/>
      <path class="cls-2" d="M54.48,10.69l-.41-1.56-2.96-.19-.62,1.49-.99-.06,2.82-6.67,1.23.08,1.94,6.98-1-.06ZM52.87,4.69l-1.41,3.39,2.37.15-.96-3.55Z"/>
      <path class="cls-2" d="M61.08,5.8l-1.4,5.79-.91-.22,1.4-5.79-1.9-.46.21-.86,4.7,1.13-.21.87-1.9-.46Z"/>
      <path class="cls-2" d="M71.57,15.48c-.22.11-.85.29-1.11.3-.21,0-.47-.04-.66-.15l-1.66-.92c-.53-.29-.71-.97-.79-1.49-.02-.15,0-.34.02-.67l.9.23c-.01.19,0,.24,0,.24,0,.3.15.71.26.87,0,0,.03.03.07.05l1.59.88s.05.03.07.02c.2,0,.85-.12.94-.29l.34-.61c.09-.16.06-.37-.04-.47l-2.36-2.24c-.39-.37-.39-.97-.15-1.41l.33-.59c.09-.17.23-.35.43-.45.22-.11.85-.3,1.12-.31.21,0,.47.04.66.15l1.51.83c.52.29.71.96.78,1.49.03.14.02.34,0,.66l-.92-.21c0-.2.01-.25.01-.25.01-.28-.15-.71-.26-.87,0,0-.02-.03-.06-.05l-1.43-.79s-.06-.02-.08-.03c-.19-.01-.86.14-.94.29l-.3.55c-.08.15-.06.34.04.44l2.34,2.26c.38.37.42.96.18,1.4l-.38.68c-.09.17-.23.35-.43.45Z"/>
      <path class="cls-2" d="M77.53,20.08c-.52.1-1.21.18-1.67-.2l-1.15-.97c-.17-.14-.31-.38-.38-.57-.09-.25-.14-.89-.12-1.14.02-.22.13-.42.26-.57l2.42-2.88c.13-.16.3-.29.51-.34.23-.06.89-.13,1.15-.09.21.04.46.13.62.27l1.16.97c.45.38.51,1.08.48,1.61,0,.15-.04.33-.13.65l-.87-.39c.14-.36.08-.86-.02-1.15,0,0-.03-.04-.06-.07l-1.09-.92s-.06-.04-.07-.04c-.17-.04-.67-.02-.92.06-.04.01-.19.21-.23.25l-2.23,2.65c-.12.15-.02.79.06.97,0,0,.02.03.05.06l1.09.92s.08.05.08.05c.28.06.8.02,1.12-.17l.54.77c-.19.11-.43.21-.62.25Z"/>
      <path class="cls-2" d="M81.82,26.11l.87-1.36-1.86-2.31-1.52.55-.62-.77,6.82-2.43.77.96-3.83,6.15-.63-.78ZM85.15,20.86l-3.45,1.26,1.49,1.85,1.96-3.1Z"/>
      <path class="cls-2" d="M83.77,28.84l6.02-3.25.44.82-5.24,2.83,1.52,2.81-.78.42-1.96-3.63Z"/>
      <path class="cls-2" d="M86.84,34.8l6.5-2.14,1.31,3.99-.84.28-1.02-3.1-1.98.65.96,2.92-.85.28-.96-2.92-1.98.65,1.02,3.1-.84.28-1.31-3.99Z"/>
    </g>
    <rect class="cls-1" x="7.01" y="48.55" width="1.95" height="1.95" transform="translate(-32.68 20.15) rotate(-45)"/>
    <rect class="cls-2" x="92.13" y="48.55" width="1.95" height="1.95" transform="translate(-7.75 80.34) rotate(-45)"/>
  </g>
</svg>